<?xml version="1.0" encoding="UTF-8" standalone="no"?>
<svg
   xmlns:dc="http://purl.org/dc/elements/1.1/"
   xmlns:cc="http://creativecommons.org/ns#"
   xmlns:rdf="http://www.w3.org/1999/02/22-rdf-syntax-ns#"
   xmlns:svg="http://www.w3.org/2000/svg"
   xmlns="http://www.w3.org/2000/svg"
   xmlns:sodipodi="http://sodipodi.sourceforge.net/DTD/sodipodi-0.dtd"
   xmlns:inkscape="http://www.inkscape.org/namespaces/inkscape"
   width="52.051655mm"
   height="56.444443mm"
   viewBox="0 0 184.435 199.99999"
   version="1.1"
   id="svg2"
   inkscape:version="0.91 r13725"
   sodipodi:docname="LogoSmall.svg">
  <metadata
     id="metadata26">
    <rdf:RDF>
      <cc:Work
         rdf:about="">
        <dc:format>image/svg+xml</dc:format>
        <dc:type
           rdf:resource="http://purl.org/dc/dcmitype/StillImage" />
        <dc:title></dc:title>
      </cc:Work>
    </rdf:RDF>
  </metadata>
  <sodipodi:namedview
     pagecolor="#ffffff"
     bordercolor="#666666"
     borderopacity="1"
     objecttolerance="10"
     gridtolerance="10"
     guidetolerance="10"
     inkscape:pageopacity="0"
     inkscape:pageshadow="2"
     inkscape:window-width="1920"
     inkscape:window-height="1017"
     id="namedview24"
     showgrid="false"
     fit-margin-top="0"
     fit-margin-left="0"
     fit-margin-right="0"
     fit-margin-bottom="0"
     inkscape:zoom="2.0486289"
     inkscape:cx="-34.584126"
     inkscape:cy="46.96846"
     inkscape:window-x="-8"
     inkscape:window-y="-8"
     inkscape:window-maximized="1"
     inkscape:current-layer="g9" />
  <defs
     id="defs4" />
  <g
     transform="translate(-299.15224,-4.026644)"
     id="g5">
    <g
       id="g9"
       transform="matrix(2.5,0,0,2.5,264.83724,-22.223356)">
      <path
         inkscape:connector-curvature="0"
         id="path11"
         style="fill:#008000"
         d="m 32.906,61.613 c -0.326,0 -0.59,0.264 -0.59,0.59 0,10.089 8.208,18.297 18.296,18.297 0.326,0 0.589,-0.264 0.589,-0.59 C 51.202,69.821 42.995,61.613 32.906,61.613 Z" />
      <path
         inkscape:connector-curvature="0"
         id="path13"
         style="fill:#008000"
         d="m 50.117,69.13 c 0.108,0.172 0.297,0.275 0.5,0.275 0.203,0 0.392,-0.105 0.5,-0.276 1.244,-1.981 2.794,-3.715 4.605,-5.152 0.178,-0.141 0.258,-0.37 0.21,-0.592 -0.761,-3.396 -2.455,-6.486 -4.9,-8.933 -0.23,-0.23 -0.604,-0.23 -0.834,0 -2.455,2.451 -4.151,5.54 -4.905,8.935 -0.049,0.22 0.032,0.449 0.209,0.59 1.819,1.442 3.372,3.175 4.615,5.153 z" />
      <path
         inkscape:connector-curvature="0"
         id="path15"
         style="fill:#008000"
         d="m 68.319,61.611 c -6.982,0 -13.454,4.083 -16.486,10.4 -0.07,0.148 -0.078,0.319 -0.017,0.473 0.901,2.282 1.376,4.681 1.41,7.127 0.003,0.174 0.082,0.338 0.216,0.448 0.106,0.087 0.238,0.134 0.375,0.134 0.035,0 0.07,-0.003 0.105,-0.009 8.685,-1.588 14.986,-9.15 14.986,-17.982 0.001,-0.326 -0.262,-0.591 -0.589,-0.591 z" />
      <path
         inkscape:connector-curvature="0"
         id="path17"
         style="fill:#000000"
         d="m 78.528,90.5 -55.83,0 c -4.947,0 -8.972,-4.024 -8.972,-8.972 0,-1.773 0.516,-3.483 1.493,-4.955 l 23.88,-51.938 0,-7.865 c -1.474,-0.268 -2.594,-1.56 -2.594,-3.11 0,-1.743 1.417,-3.16 3.16,-3.16 l 21.897,0 c 1.742,0 3.16,1.417 3.16,3.16 0,1.55 -1.121,2.843 -2.595,3.11 l 0,7.863 23.88,51.94 c 0.978,1.471 1.493,3.181 1.493,4.955 0,4.948 -4.024,8.972 -8.972,8.972 z M 41.763,26.021 17.893,77.937 c -0.036,0.077 -0.078,0.151 -0.125,0.221 -0.682,0.995 -1.042,2.16 -1.042,3.37 0,3.293 2.679,5.972 5.972,5.972 l 55.831,0 c 3.293,0 5.972,-2.679 5.972,-5.972 0,-1.211 -0.36,-2.376 -1.042,-3.369 -0.048,-0.07 -0.09,-0.145 -0.126,-0.222 L 59.438,25.965 c -0.193,-0.249 -0.311,-0.557 -0.311,-0.89 l 0,-9.755 c 0,-0.829 0.672,-1.5 1.5,-1.5 l 0.935,0 c 0.088,0 0.16,-0.072 0.16,-0.161 0,-0.089 -0.072,-0.16 -0.16,-0.16 l -21.897,0 c -0.088,0 -0.16,0.072 -0.16,0.16 0,0.088 0.072,0.161 0.16,0.161 l 0.934,0 c 0.829,0 1.5,0.671 1.5,1.5 l 0,9.755 c 0,0.359 -0.126,0.688 -0.336,0.946 z" />
    </g>
    <g
       transform="matrix(7.4357914,0,0,12.297753,59.991355,324.67241)"
       id="g19" />
  </g>
</svg>
